<svg width="14" height="13" viewBox="0 0 14 13" fill="none" xmlns="http://www.w3.org/2000/svg">
<path d="M12.3358 8.06079H1.82989C1.10461 8.06079 0.516602 7.38258 0.516602 6.54602C0.516602 5.70947 1.10461 5.03125 1.82989 5.03125H12.3358C13.0611 5.03125 13.6491 5.70947 13.6491 6.54602C13.6491 7.38272 13.0611 8.06079 12.3358 8.06079Z" fill="#14142B"/>
<path d="M4.20234 12.3023C3.48541 12.3023 2.90418 11.7227 2.9043 11.0078C2.9043 10.7807 2.96429 10.5574 3.0782 10.3607L8.27061 1.39025C8.65518 0.786884 9.45754 0.608738 10.0625 0.992213C10.6318 1.35312 10.8291 2.08864 10.5163 2.6846L5.32379 11.655C5.09244 12.0547 4.66516 12.3013 4.20234 12.3023Z" fill="#14142B"/>
<path d="M9.36875 12.3023C8.90498 12.3023 8.4765 12.0556 8.24468 11.6551L3.05246 2.68467C2.72012 2.0512 2.96569 1.26908 3.60092 0.937659C4.19855 0.625901 4.93612 0.822494 5.29804 1.39019L10.4903 10.3606C10.8488 10.9798 10.636 11.7714 10.0152 12.1289C9.81791 12.2425 9.594 12.3023 9.36619 12.3023H9.36875Z" fill="#14142B"/>
</svg>
