<svg width="50" height="50" viewBox="0 0 50 50" fill="none" xmlns="http://www.w3.org/2000/svg">
<path d="M41.3438 8.01576C30.6986 0.119447 19.2261 -0.0814614 8.26851 7.87578C7.58317 8.37351 7.43114 9.33256 7.92876 10.0179C8.42638 10.7031 9.38533 10.8554 10.0709 10.3577C19.9729 3.16714 29.9799 3.40526 39.5164 10.4792C40.1967 10.9838 41.1573 10.8415 41.6619 10.1611C42.1665 9.48091 42.0241 8.52033 41.3438 8.01576Z" fill="white"/>
<path d="M24.7108 8.5332C18.1954 8.5332 9.81925 12.8713 6.25778 18.2137C5.78787 18.9184 5.97835 19.8706 6.68312 20.3404C7.38799 20.8101 8.34019 20.6199 8.8099 19.915C11.7626 15.4858 19.193 11.6005 24.7108 11.6005C30.1139 11.6005 37.5036 14.4831 40.5563 19.8252C40.8394 20.3207 41.3568 20.5983 41.8892 20.5983C43.0465 20.5983 43.8098 19.3365 43.2194 18.3035C39.7033 12.1502 31.4472 8.5332 24.7108 8.5332V8.5332Z" fill="white"/>
<path d="M16.4293 33.7862C16.4293 28.7686 20.1445 24.6865 24.711 24.6865C29.2776 24.6865 32.9928 28.7686 32.9928 33.7862V35.4221C32.9928 36.2691 33.6795 36.9557 34.5265 36.9557C35.3734 36.9557 36.0601 36.2691 36.0601 35.4221V33.7862C36.0601 27.0772 30.969 21.6191 24.711 21.6191C18.4531 21.6191 13.3619 27.0772 13.3619 33.7862C13.3619 40.3076 18.2652 43.8013 20.43 46.9284C20.7278 47.3586 21.206 47.5892 21.6924 47.5892C22.9135 47.5892 23.6608 46.2062 22.9519 45.1824C20.609 41.7982 16.4293 38.9919 16.4293 33.7862Z" fill="white"/>
<path d="M41.6237 39.3784C46.3637 29.899 37.9349 15.0742 24.7109 15.0742C15.4007 15.0742 6.81824 22.9651 6.81824 32.9669C6.81824 36.5982 7.28406 39.6694 9.55736 42.8553C10.0494 43.5447 11.0071 43.7048 11.6966 43.2128C12.386 42.7208 12.5463 41.7631 12.0542 41.0735C10.4531 38.8298 9.88556 36.7084 9.88556 32.9669C9.88556 25.0693 16.8133 18.1415 24.7109 18.1415C28.6868 18.1415 32.6133 19.8951 35.4837 22.9527C39.5471 27.281 41.0072 33.7528 38.8803 38.0067C36.6662 42.4345 29.5164 41.1795 29.5164 35.4208C29.5164 24.0466 17.8652 27.4485 19.9513 35.7927C20.1566 36.6145 20.9895 37.1139 21.811 36.9086C22.6327 36.7032 23.1324 35.8706 22.9269 35.0488C22.3912 32.9057 23.3739 31.2288 24.7109 31.2288C25.9116 31.2288 26.4491 33.3342 26.4491 35.4208C26.4491 44.4011 37.953 46.7205 41.6237 39.3784V39.3784Z" fill="white"/>
</svg>
