<svg width="110" height="36" viewBox="0 0 110 36" fill="none" xmlns="http://www.w3.org/2000/svg">
<path d="M16.4407 27.3018L9.39287 35.1882L2.28867 28.8437L1.39541 28.039C0.99167 27.5924 0.665291 27.0817 0.429732 26.5277C0.14615 25.8581 1.42147e-05 25.1384 3.22755e-06 24.4112V10.2061C-0.00150008 11.5849 0.522201 12.9126 1.46462 13.9191C1.68517 14.1537 1.92532 14.3691 2.18245 14.5629L7.14605 18.9986L7.64177 19.4412L10.1139 21.651L16.4407 27.3018Z" fill="#056348"/>
<path d="M16.6564 8.36924L8.38051 17.6285L7.15249 19.0014L2.18888 14.5657L1.47106 13.9219C0.525528 12.9156 -0.000577814 11.5865 4.76232e-07 10.2056V10.1397C0.0129099 9.00001 0.384592 7.89341 1.06225 6.97705L1.74145 6.21738L1.85894 6.11115L1.94907 5.98561L2.52043 5.34183L7.29734 0L16.6564 8.36924Z" fill="#B8EE00"/>
<path d="M25.2527 26.876V8.69106H28.0064V16.4846L35.1764 8.69106H38.5796L31.8512 15.939L38.7355 26.876H35.3843L29.8768 18.0433L28.0064 20.0696V26.876H25.2527ZM44.1554 27.1877C42.5967 27.1877 41.3671 26.7028 40.4665 25.7329C39.5832 24.7631 39.1416 23.3169 39.1416 21.3945V13.9907H41.8953V21.1088C41.8953 23.6027 42.9171 24.8497 44.9608 24.8497C45.9826 24.8497 46.8226 24.486 47.4807 23.7586C48.1388 23.0312 48.4679 21.992 48.4679 20.6411V13.9907H51.2216V26.876H48.7796L48.5718 24.6159C48.1734 25.4125 47.5846 26.0447 46.8052 26.5123C46.0432 26.9626 45.1599 27.1877 44.1554 27.1877ZM59.4527 27.1877C58.1884 27.1877 57.0627 26.9106 56.0755 26.3564C55.1056 25.7849 54.3436 24.9969 53.7894 23.9924C53.2352 22.9879 52.9581 21.8188 52.9581 20.4853C52.9581 19.1344 53.2265 17.9481 53.7634 16.9262C54.3176 15.9044 55.0797 15.1077 56.0495 14.5362C57.0367 13.9647 58.1797 13.6789 59.4787 13.6789C60.743 13.6789 61.8427 13.9647 62.7779 14.5362C63.7132 15.0904 64.4406 15.8351 64.9601 16.7704C65.4797 17.7056 65.7395 18.7361 65.7395 19.8618C65.7395 20.035 65.7308 20.2255 65.7135 20.4333C65.7135 20.6238 65.7048 20.8403 65.6875 21.0828H55.6598C55.7464 22.3297 56.1534 23.2823 56.8808 23.9404C57.6255 24.5812 58.4828 24.9016 59.4527 24.9016C60.232 24.9016 60.8815 24.7284 61.4011 24.382C61.938 24.0183 62.3363 23.5334 62.5961 22.9273H65.3498C65.0034 24.1396 64.3107 25.1527 63.2715 25.9667C62.2497 26.7807 60.9768 27.1877 59.4527 27.1877ZM59.4527 15.939C58.5348 15.939 57.7208 16.2162 57.0107 16.7704C56.3006 17.3072 55.8677 18.1212 55.7118 19.2123H62.9858C62.9338 18.2078 62.5788 17.4112 61.9206 16.8223C61.2625 16.2335 60.4399 15.939 59.4527 15.939ZM67.2978 32.5912V13.9907H69.7657L70.0515 15.991C70.4671 15.3848 71.0387 14.848 71.7661 14.3803C72.4935 13.9127 73.4287 13.6789 74.5717 13.6789C75.8187 13.6789 76.9185 13.9733 77.871 14.5622C78.8235 15.151 79.5683 15.9564 80.1052 16.9782C80.6594 18 80.9365 19.1604 80.9365 20.4593C80.9365 21.7582 80.6594 22.9186 80.1052 23.9404C79.5683 24.9449 78.8235 25.7416 77.871 26.3304C76.9185 26.902 75.81 27.1877 74.5458 27.1877C73.5413 27.1877 72.6493 26.9885 71.87 26.5902C71.1079 26.1919 70.5018 25.629 70.0515 24.9016V32.5912H67.2978ZM74.0782 24.7977C75.2558 24.7977 76.2257 24.3994 76.9877 23.6027C77.7498 22.7887 78.1308 21.7322 78.1308 20.4333C78.1308 19.5847 77.9576 18.8313 77.6112 18.1732C77.2648 17.5151 76.7886 17.0042 76.1824 16.6405C75.5762 16.2595 74.8748 16.0689 74.0782 16.0689C72.9005 16.0689 71.9306 16.4759 71.1686 17.2899C70.4238 18.1039 70.0515 19.1517 70.0515 20.4333C70.0515 21.7322 70.4238 22.7887 71.1686 23.6027C71.9306 24.3994 72.9005 24.7977 74.0782 24.7977ZM86.9803 27.1877C85.8892 27.1877 84.9886 27.0059 84.2785 26.6422C83.5685 26.2785 83.0402 25.8022 82.6939 25.2134C82.3475 24.6072 82.1743 23.9491 82.1743 23.239C82.1743 21.992 82.6592 21.0048 83.6291 20.2775C84.5989 19.5501 85.9845 19.1864 87.7856 19.1864H91.1628V18.9526C91.1628 17.9481 90.8857 17.1947 90.3315 16.6924C89.7946 16.1902 89.0932 15.939 88.2273 15.939C87.4652 15.939 86.7985 16.1296 86.2269 16.5106C85.6727 16.8743 85.335 17.4198 85.2138 18.1472H82.4601C82.5467 17.212 82.8584 16.4153 83.3953 15.7572C83.9495 15.0818 84.6422 14.5709 85.4736 14.2245C86.3222 13.8608 87.2487 13.6789 88.2532 13.6789C90.0544 13.6789 91.4486 14.1552 92.4358 15.1077C93.423 16.043 93.9166 17.3246 93.9166 18.9526V26.876H91.5265L91.2927 24.6678C90.929 25.3779 90.4008 25.9754 89.708 26.4603C89.0153 26.9453 88.106 27.1877 86.9803 27.1877ZM87.5259 24.9536C88.2706 24.9536 88.8941 24.7804 89.3963 24.434C89.9159 24.0703 90.3142 23.594 90.5913 23.0052C90.8857 22.4163 91.0676 21.7669 91.1369 21.0568H88.0714C86.9803 21.0568 86.201 21.2473 85.7333 21.6283C85.283 22.0093 85.0579 22.4856 85.0579 23.0571C85.0579 23.646 85.2744 24.1136 85.7074 24.46C86.1577 24.789 86.7638 24.9536 87.5259 24.9536ZM96.9292 32.5912L100.021 25.8109H99.2673L94.1755 13.9907H97.163L101.112 23.5248L105.242 13.9907H108.152L99.8388 32.5912H96.9292Z" fill="#222222"/>
</svg>
