<svg width="533" height="480" viewBox="0 0 533 480" fill="none" xmlns="http://www.w3.org/2000/svg">
<path d="M475.303 101.968V98.3293H407.992V44.3789H405.803V98.3293H338.967V101.968H405.803V151.915H338.967V155.564H405.803V205.511H338.967V209.15H405.803V261.629H407.992V209.15H475.303V205.511H407.992V155.564H475.303V151.915H407.992V101.968H475.303Z" fill="#263238" stroke="#263238" stroke-miterlimit="10"/>
<path d="M334.355 40.002V267.472H479.44V40.002H334.355ZM474.54 259.785H339.255V47.6776H474.54V259.785Z" fill="#263238" stroke="#263238" stroke-miterlimit="10"/>
<path d="M271.181 325.854C271.186 325.84 271.188 325.826 271.188 325.811C271.188 325.796 271.184 325.782 271.178 325.768C271.172 325.755 271.163 325.743 271.152 325.733C271.141 325.723 271.128 325.715 271.114 325.71C271.101 325.705 271.086 325.703 271.071 325.703C271.056 325.704 271.042 325.707 271.029 325.713C271.015 325.719 271.003 325.728 270.993 325.739C270.983 325.75 270.976 325.763 270.971 325.777C267.722 333.559 265.154 341.607 263.295 349.832C261.398 358.058 259.969 366.385 259.015 374.772L258.418 381.076C258.329 382.127 258.207 383.178 258.13 384.229L257.964 387.392C257.876 389.504 257.743 391.617 257.677 393.729L257.743 400.066L257.809 403.23C257.809 404.28 257.931 405.342 258.008 406.393C258.163 408.494 258.296 410.607 258.484 412.708C258.893 416.911 259.524 421.08 260.165 425.25C260.172 425.274 260.186 425.296 260.206 425.312C260.226 425.328 260.25 425.337 260.276 425.338C260.291 425.34 260.306 425.338 260.32 425.334C260.334 425.329 260.347 425.321 260.358 425.31C260.368 425.299 260.377 425.286 260.381 425.272C260.386 425.258 260.388 425.243 260.386 425.228C260.386 423.115 260.287 421.025 260.242 418.913C260.198 416.8 259.999 414.732 260.032 412.63C260.066 410.529 260.032 408.428 259.966 406.337L259.9 403.196V400.055V393.773L260.066 387.502L260.132 384.361C260.132 383.311 260.254 382.271 260.309 381.22L260.696 374.949C261.409 366.598 262.595 358.293 264.246 350.075C265.854 341.817 268.174 333.713 271.181 325.854Z" fill="#263238"/>
<path d="M272.077 358.681C272.084 358.655 272.081 358.626 272.069 358.602C272.057 358.577 272.036 358.558 272.01 358.548C271.996 358.543 271.982 358.541 271.967 358.541C271.952 358.542 271.938 358.545 271.924 358.551C271.911 358.557 271.899 358.566 271.889 358.577C271.879 358.588 271.871 358.601 271.866 358.615C268.281 369.091 265.895 379.94 264.755 390.954C264.202 396.484 263.583 401.948 263.505 407.477C263.374 413.014 263.569 418.554 264.091 424.067C264.097 424.09 264.11 424.111 264.128 424.126C264.146 424.142 264.167 424.152 264.191 424.156C264.205 424.159 264.219 424.159 264.233 424.156C264.247 424.154 264.26 424.148 264.272 424.139C264.283 424.131 264.293 424.12 264.3 424.108C264.307 424.095 264.311 424.082 264.312 424.067C264.954 418.537 265.341 413.074 265.728 407.588C266.115 402.102 266.171 396.606 266.524 391.12C267.277 380.156 269.13 369.296 272.054 358.703L272.077 358.681Z" fill="#263238"/>
<path d="M290.281 370.237C290.261 370.216 290.233 370.205 290.204 370.205C290.175 370.205 290.147 370.216 290.126 370.237C285.575 373.159 281.476 376.732 277.961 380.843C276.195 382.92 274.604 385.14 273.205 387.479L272.231 389.326L271.457 391.251C271.198 391.882 270.977 392.528 270.794 393.186C270.595 393.85 270.373 394.491 270.196 395.155C268.806 400.406 267.965 405.788 267.686 411.214C267.414 416.611 267.614 422.021 268.283 427.383C268.29 427.408 268.304 427.43 268.324 427.445C268.344 427.461 268.368 427.47 268.394 427.472C268.408 427.473 268.422 427.472 268.435 427.468C268.449 427.463 268.461 427.456 268.471 427.447C268.482 427.438 268.49 427.426 268.496 427.413C268.501 427.4 268.504 427.386 268.504 427.372L269.898 411.369C270.275 406.074 270.951 400.805 271.922 395.586C272.066 394.934 272.254 394.314 272.42 393.673C272.569 393.032 272.753 392.401 272.973 391.781L273.625 389.934L274.466 388.187C275.732 385.858 277.189 383.638 278.823 381.551C282.071 377.311 285.92 373.566 290.248 370.436C290.266 370.428 290.282 370.415 290.294 370.399C290.306 370.383 290.314 370.365 290.318 370.345C290.321 370.325 290.319 370.305 290.313 370.286C290.307 370.267 290.296 370.25 290.281 370.237Z" fill="#263238"/>
<path d="M281.467 390.799C279.105 392.522 277.206 394.801 275.937 397.435C274.6 400.027 273.557 402.761 272.829 405.586C272.619 406.283 272.442 406.991 272.287 407.698L271.789 409.822C271.526 411.252 271.345 412.696 271.247 414.146C271.247 415.606 271.192 417.055 271.247 418.504C271.353 419.955 271.541 421.399 271.811 422.828C271.818 422.849 271.83 422.867 271.845 422.883C271.861 422.898 271.879 422.91 271.9 422.917C271.914 422.92 271.929 422.92 271.944 422.918C271.959 422.915 271.973 422.909 271.985 422.901C271.997 422.893 272.008 422.882 272.016 422.869C272.024 422.857 272.03 422.843 272.032 422.828C272.368 421.424 272.626 420.003 272.807 418.57C273.028 417.155 273.249 415.761 273.415 414.356C273.581 412.952 273.802 411.569 273.913 410.165C274.023 408.76 274.211 407.356 274.521 405.984C275.007 403.213 275.801 400.505 276.888 397.91C277.868 395.265 279.46 392.889 281.533 390.976C281.543 390.966 281.55 390.955 281.556 390.943C281.561 390.931 281.564 390.917 281.564 390.904C281.564 390.89 281.561 390.877 281.556 390.865C281.55 390.852 281.543 390.841 281.533 390.832C281.515 390.814 281.492 390.803 281.467 390.799Z" fill="#263238"/>
<path d="M255.94 406.836C255.343 399.735 254.171 392.69 253.065 385.667C251.959 378.644 250.72 371.621 249.437 364.653C248.154 357.685 246.716 350.685 245.201 343.739C245.206 343.722 245.208 343.705 245.205 343.687C245.203 343.67 245.196 343.654 245.186 343.639C245.175 343.625 245.162 343.614 245.146 343.606C245.131 343.598 245.113 343.594 245.096 343.594C245.078 343.594 245.061 343.598 245.046 343.606C245.03 343.614 245.017 343.625 245.006 343.639C244.996 343.654 244.989 343.67 244.987 343.687C244.984 343.705 244.985 343.722 244.991 343.739C246.207 350.751 247.302 357.774 248.309 364.808C249.315 371.842 250.377 378.865 251.273 385.91C252.169 392.956 252.821 400.034 253.695 407.068L256.294 428.226C256.301 428.251 256.314 428.275 256.334 428.292C256.354 428.31 256.378 428.322 256.405 428.325C256.435 428.325 256.465 428.314 256.487 428.294C256.51 428.273 256.524 428.245 256.526 428.215C256.604 426.434 256.604 424.653 256.648 422.862C256.692 421.07 256.571 419.3 256.549 417.52C256.515 413.947 256.206 410.397 255.94 406.836Z" fill="#263238"/>
<path d="M251.682 406.736C251.295 403.916 250.786 401.118 250.244 398.331L249.249 394.183C248.917 392.801 248.607 391.418 248.209 390.047C246.791 384.536 244.972 379.135 242.768 373.888L241.916 371.931L240.976 370.017C240.368 368.734 239.649 367.507 238.952 366.257C237.556 363.772 235.829 361.488 233.82 359.466C233.811 359.457 233.8 359.449 233.788 359.444C233.775 359.438 233.762 359.436 233.748 359.436C233.735 359.436 233.722 359.438 233.709 359.444C233.697 359.449 233.686 359.457 233.677 359.466C233.656 359.487 233.645 359.515 233.645 359.544C233.645 359.573 233.656 359.6 233.677 359.621C235.548 361.717 237.126 364.057 238.366 366.578C238.985 367.839 239.638 369.077 240.169 370.382L241.009 372.318L241.75 374.298C243.715 379.563 245.297 384.963 246.484 390.456C247.125 393.188 247.59 395.986 248.088 398.74L248.751 402.899C248.995 404.281 249.293 405.664 249.481 407.057C249.924 409.833 250.443 412.587 250.919 415.385C251.395 418.183 251.859 420.915 252.456 423.736C252.461 423.76 252.472 423.783 252.49 423.801C252.508 423.819 252.531 423.831 252.556 423.835C252.586 423.835 252.616 423.824 252.638 423.803C252.661 423.783 252.675 423.755 252.678 423.724C252.678 420.886 252.611 418.047 252.478 415.208C252.313 412.377 251.97 409.557 251.682 406.736Z" fill="#263238"/>
<path d="M245.798 407.099C244.482 403.361 242.956 399.711 241.297 396.139C239.624 392.568 237.733 389.103 235.634 385.764C235.628 385.749 235.619 385.736 235.608 385.725C235.596 385.713 235.583 385.705 235.567 385.7C235.552 385.694 235.536 385.692 235.52 385.694C235.504 385.695 235.489 385.7 235.475 385.709C235.461 385.717 235.449 385.728 235.44 385.741C235.431 385.754 235.425 385.769 235.422 385.785C235.419 385.801 235.42 385.817 235.424 385.833C235.428 385.848 235.436 385.863 235.446 385.875C237.272 389.343 238.886 392.918 240.279 396.581C241.717 400.209 243.022 403.903 244.106 407.641C245.19 411.379 246.019 415.195 247.015 418.955C248.01 422.716 248.906 426.509 250.067 430.314C250.074 430.335 250.087 430.354 250.105 430.368C250.123 430.382 250.144 430.39 250.167 430.391C250.197 430.391 250.227 430.38 250.249 430.36C250.272 430.339 250.286 430.311 250.289 430.281C250.33 426.312 249.96 422.35 249.183 418.458C248.361 414.587 247.229 410.788 245.798 407.099Z" fill="#263238"/>
<path d="M245.555 419.519C244.83 417.191 243.776 414.979 242.425 412.949C241.167 410.869 239.634 408.968 237.868 407.297C236.967 406.479 235.998 405.739 234.971 405.085C233.946 404.427 232.827 403.927 231.653 403.603C231.628 403.599 231.602 403.603 231.58 403.615C231.558 403.627 231.541 403.646 231.531 403.67C231.514 403.69 231.504 403.715 231.504 403.742C231.504 403.768 231.514 403.793 231.531 403.813C233.627 404.824 235.486 406.268 236.983 408.049C238.496 409.791 239.771 411.725 240.777 413.801C241.883 415.836 242.414 418.092 243.354 420.204C243.763 421.31 244.172 422.361 244.659 423.445C245.056 424.583 245.532 425.692 246.086 426.763C246.097 426.779 246.111 426.793 246.129 426.803C246.146 426.812 246.165 426.818 246.185 426.818C246.199 426.82 246.213 426.818 246.227 426.814C246.24 426.81 246.253 426.803 246.263 426.793C246.273 426.784 246.282 426.772 246.287 426.759C246.293 426.747 246.296 426.733 246.296 426.719C246.34 425.504 246.296 424.288 246.163 423.08C246.086 421.874 245.842 420.691 245.555 419.519Z" fill="#263238"/>
<path d="M245.997 353.87C242.44 352.886 239.221 350.948 236.686 348.265C234.152 345.583 232.4 342.258 231.619 338.651C228.932 326.109 237.592 331.485 229.828 311.776C222.064 292.067 223.855 287.588 226.51 281.914C229.164 276.24 230.69 278.032 233.079 285.497C235.468 292.963 244.139 304.609 247.457 326.419C250.775 348.229 245.997 353.87 245.997 353.87Z" fill="#056348"/>
<path d="M268.969 332.678C268.969 332.678 261.227 329.991 260.906 315.359C260.585 300.726 266.58 303.712 267.476 285.497C268.372 267.281 269.566 254.44 272.851 254.142C276.136 253.843 284.796 263.1 287.782 283.406C290.768 303.712 283.9 317.15 277.927 323.123C271.955 329.095 268.969 332.678 268.969 332.678Z" fill="#056348"/>
<path d="M241.817 371.489C241.817 371.489 240.025 360.739 236.441 355.662C232.858 350.586 225.094 346.106 220.017 336.263C214.941 326.42 209.267 321.631 209.566 335.666C209.864 349.701 216.135 356.857 223.944 361.634C231.752 366.412 241.817 371.489 241.817 371.489Z" fill="#056348"/>
<path d="M238.532 390.001C238.532 390.001 231.365 376.264 220.913 366.111C210.462 355.958 202.111 350.882 205.087 355.958C208.062 361.035 211.656 360.736 216.733 369.695C221.809 378.653 220.316 385.179 227.483 390.299C234.65 395.42 238.532 390.001 238.532 390.001Z" fill="#056348"/>
<path d="M237.636 407.619C237.337 406.723 237.039 400.154 226.886 394.779C216.733 389.403 207.177 391.461 208.371 394.181C209.566 396.902 215.837 401.348 222.108 404.036C228.379 406.723 237.636 407.619 237.636 407.619Z" fill="#056348"/>
<path d="M268.383 372.087C268.383 372.087 263.903 366.413 266.292 354.468C268.681 342.523 274.034 345.51 280.029 339.239C286.023 332.968 284.807 332.083 290.779 325.513C296.751 318.944 302.127 315.36 304.515 318.048C306.904 320.735 303.321 329.108 299.738 333.874C296.154 338.641 290.48 341.03 287.771 346.958C285.061 352.887 286.278 362.442 279.409 366.966C272.541 371.489 268.383 372.087 268.383 372.087Z" fill="#056348"/>
<path d="M283.347 375.369C283.347 375.369 294.097 363.126 301.861 354.167C309.625 345.209 312.611 338.352 312.921 344.313C313.231 350.274 315.608 355.063 309.337 362.827C303.066 370.591 283.347 375.369 283.347 375.369Z" fill="#056348"/>
<path d="M277.64 395.079C277.64 395.079 277.341 390.301 294.362 379.252C311.384 368.203 318.55 366.113 316.759 370.592C314.967 375.072 307.502 379.551 299.439 387.614C291.376 395.676 277.64 395.079 277.64 395.079Z" fill="#056348"/>
<path d="M246.705 352.599C246.705 352.599 242.712 331.187 238.532 315.957C234.351 300.728 231.664 291.471 231.664 291.471" stroke="#263238" stroke-linecap="round" stroke-linejoin="round"/>
<path d="M268.294 332.902C268.294 332.902 275.549 309.676 277.938 295.652C280.327 281.628 277.64 271.166 276.445 264.895" stroke="#263238" stroke-linecap="round" stroke-linejoin="round"/>
<path d="M240.876 371.045C237.661 365.514 233.979 360.267 229.872 355.362C223.302 347.62 218.226 343.417 215.24 335.963" stroke="#263238" stroke-linecap="round" stroke-linejoin="round"/>
<path d="M268.383 372.085C268.383 372.085 270.772 357.707 276.445 350.286C282.119 342.865 293.467 331.186 297.946 323.742" stroke="#263238" stroke-linecap="round" stroke-linejoin="round"/>
<path d="M236.895 407.292C236.895 407.292 226.853 400.755 219.686 397.172" stroke="#263238" stroke-linecap="round" stroke-linejoin="round"/>
<path d="M269.953 470.618H249.205L238.83 418.67H280.327L269.953 470.618Z" fill="#263238" stroke="#263238" stroke-linecap="round" stroke-linejoin="round"/>
<path d="M61.9272 470.621H532.173" stroke="#263238" stroke-miterlimit="10"/>
<path d="M24.7436 470.621H53.9086" stroke="#263238" stroke-miterlimit="10"/>
<path d="M229.308 152.303V117.464H226.156V72.8817C226.157 69.2715 225.447 65.6965 224.067 62.3607C222.686 59.0249 220.662 55.9938 218.11 53.4405C215.557 50.8872 212.527 48.8618 209.192 47.4799C205.857 46.098 202.282 45.3867 198.672 45.3867H50.9995C43.7074 45.3867 36.7139 48.2835 31.5576 53.4398C26.4013 58.5961 23.5045 65.5896 23.5045 72.8817V423.957C23.5045 431.249 26.4013 438.243 31.5576 443.399C36.7139 448.555 43.7074 451.452 50.9995 451.452H198.672C202.282 451.452 205.857 450.741 209.192 449.359C212.527 447.977 215.557 445.952 218.11 443.398C220.662 440.845 222.686 437.814 224.067 434.478C225.447 431.142 226.157 427.567 226.156 423.957V181.999H229.308V161.416H226.156V152.303H229.308Z" fill="#707070" stroke="#263238" stroke-linejoin="round"/>
<path d="M193.85 447.659H55.8106C48.0872 447.659 40.6803 444.591 35.219 439.13C29.7578 433.668 26.6898 426.261 26.6898 418.538V78.3015C26.6898 62.2093 34.9405 49.1696 55.8106 49.1696H193.85C212.994 48.9152 222.981 62.2093 222.981 78.3015V418.538C222.981 422.363 222.228 426.151 220.764 429.685C219.3 433.219 217.154 436.429 214.448 439.134C211.743 441.838 208.531 443.983 204.997 445.445C201.463 446.908 197.675 447.66 193.85 447.659Z" fill="#263238" stroke="#263238" stroke-linejoin="round"/>
<path d="M135.519 53.6484L135.464 53.8586C133.849 59.8752 130.133 63.8125 126.019 63.8125H123.652C119.538 63.8125 115.822 59.9194 114.207 53.8586V53.6484L56.6068 53.4493C53.4176 53.4392 50.2576 54.0583 47.3081 55.2714C44.3585 56.4845 41.6773 58.2677 39.418 60.5187C37.1588 62.7698 35.3658 65.4445 34.142 68.3896C32.9182 71.3347 32.2875 74.4924 32.286 77.6817L32.2086 414.943C32.2086 430.659 44.5073 443.4 59.6926 443.4H190.023C205.208 443.4 217.518 430.659 217.518 414.943V75.2595C217.518 69.7282 215.338 64.4198 211.449 60.4858C207.561 56.5519 202.278 54.3097 196.747 54.2457L135.519 53.6484Z" fill="white" stroke="#263238" stroke-miterlimit="10"/>
<path d="M217.496 81.3848V75.2576C217.496 69.7262 215.316 64.4178 211.427 60.4839C207.539 56.5499 202.256 54.3077 196.725 54.2437L135.52 53.6133L135.464 53.8234C133.85 59.84 130.133 63.7773 126.019 63.7773H123.652C119.538 63.7773 115.822 59.8843 114.207 53.8234V53.6133L56.6069 53.4142C53.4149 53.404 50.2522 54.0243 47.3005 55.2394C44.3488 56.4546 41.6661 58.2407 39.4064 60.4953C37.1467 62.7499 35.3545 65.4285 34.1326 68.3774C32.9107 71.3264 32.2832 74.4876 32.2861 77.6797V81.3848H217.496Z" fill="#DBDBDB" stroke="#263238" stroke-miterlimit="10"/>
<path d="M126.849 52.9845C126.849 52.4721 126.696 51.9713 126.412 51.5455C126.127 51.1197 125.722 50.788 125.248 50.5924C124.775 50.3969 124.254 50.3463 123.752 50.447C123.249 50.5478 122.788 50.7954 122.427 51.1584C122.065 51.5215 121.819 51.9836 121.721 52.4864C121.622 52.9892 121.675 53.5099 121.873 53.9826C122.07 54.4553 122.404 54.8587 122.831 55.1417C123.258 55.4248 123.759 55.5747 124.272 55.5725C124.611 55.5725 124.947 55.5055 125.26 55.3753C125.574 55.2451 125.858 55.0543 126.098 54.8138C126.337 54.5734 126.527 54.288 126.656 53.974C126.784 53.6601 126.85 53.3238 126.849 52.9845Z" fill="#707070"/>
<path d="M50.4244 59.557C50.4244 62.1783 47.4935 63.1183 47.4825 65.087V65.2197H50.3249V66.0935H46.5313V65.3746C46.5313 62.5764 49.4622 62.0566 49.4622 59.6013C49.4622 58.7054 49.1636 58.2409 48.4447 58.2409C47.7258 58.2409 47.4272 58.7497 47.4272 59.5128V60.2759H46.5313V59.5792C46.5313 58.252 47.1285 57.3672 48.4668 57.3672C49.8051 57.3672 50.4244 58.2962 50.4244 59.557Z" fill="#263238"/>
<path d="M55.1691 59.544V59.7652C55.2065 60.1438 55.1185 60.5241 54.9187 60.8478C54.7189 61.1715 54.4183 61.4207 54.0631 61.5569C54.4205 61.69 54.7233 61.9385 54.9236 62.263C55.1239 62.5875 55.2103 62.9695 55.1691 63.3486V64.0122C55.1691 65.3394 54.5498 66.2242 53.2115 66.2242C51.8732 66.2242 51.265 65.3615 51.265 64.0122V63.4261H52.194V64.0786C52.194 64.8528 52.5147 65.3284 53.2115 65.3284C53.9083 65.3284 54.218 64.8639 54.218 63.9901V63.3265C54.218 62.4638 53.864 62.0546 53.112 62.0325H52.5921V61.1698H53.1562C53.3068 61.1715 53.456 61.1405 53.5934 61.0788C53.7308 61.0172 53.8531 60.9264 53.952 60.8128C54.0509 60.6992 54.1239 60.5655 54.166 60.4209C54.2081 60.2763 54.2183 60.1243 54.1958 59.9754V59.5883C54.1958 58.6924 53.8862 58.2389 53.1894 58.2389C52.4926 58.2389 52.1719 58.7145 52.1719 59.4998V59.9422H51.265V59.544C51.265 58.2279 51.8843 57.332 53.2115 57.332C54.5387 57.332 55.1691 58.2279 55.1691 59.544Z" fill="#263238"/>
<path d="M57.0382 60.2051V61.3995H56.1092V60.2051H57.0382ZM57.0382 64.9166V66.1111H56.1092V64.9277L57.0382 64.9166Z" fill="#263238"/>
<path d="M58.9848 60.9812C59.1132 60.7537 59.302 60.5661 59.5304 60.4392C59.7588 60.3123 60.0178 60.2511 60.2788 60.2623C61.3848 60.2623 61.8825 61.0808 61.8825 62.3195V64.0117C61.8825 65.3389 61.2521 66.2237 59.936 66.2237C58.6199 66.2237 57.9894 65.361 57.9894 64.0117V63.4366H58.8853V64.078C58.8853 64.8522 59.2171 65.3278 59.9028 65.3278C60.5885 65.3278 60.9203 64.8522 60.9203 64.078V62.3969C60.9203 61.6117 60.5996 61.1471 59.9028 61.1471C59.7771 61.1412 59.6516 61.1608 59.5337 61.2048C59.4158 61.2488 59.3081 61.3162 59.2171 61.4031C59.1261 61.49 59.0537 61.5944 59.0042 61.7101C58.9548 61.8258 58.9294 61.9504 58.9295 62.0762V62.2642H58.0226L58.2549 57.4531H61.6724V58.2937H59.1286L58.9848 60.9812Z" fill="#263238"/>
<path d="M66.7047 59.5317V59.6976H65.7978V59.4764C65.7978 58.6912 65.477 58.2377 64.7692 58.2377C64.0614 58.2377 63.6632 58.7022 63.6632 59.6313V61.611C63.7634 61.326 63.9535 61.0813 64.2048 60.9138C64.4562 60.7462 64.7552 60.6648 65.0568 60.682C66.1627 60.682 66.6715 61.4893 66.6715 62.7391V64.0442C66.6715 65.3714 66.019 66.2562 64.6918 66.2562C63.3646 66.2562 62.701 65.3935 62.701 64.0442V59.6202C62.701 58.2488 63.3203 57.4082 64.6918 57.4082C66.0632 57.4082 66.7047 58.2045 66.7047 59.5317ZM63.7185 62.7723V64.0774C63.7185 64.8515 64.0392 65.3271 64.7471 65.3271C65.4549 65.3271 65.7756 64.8515 65.7756 64.0774V62.7723C65.7756 61.9981 65.4439 61.5225 64.7471 61.5225C64.0503 61.5225 63.7185 61.9981 63.7185 62.7723Z" fill="#263238"/>
<path d="M161.267 59.9219H158.823V66.038H161.267V59.9219Z" fill="#263238"/>
<path d="M164.53 58.6895H162.085V66.0332H164.53V58.6895Z" fill="#263238"/>
<path d="M167.792 57.8184H165.348V66.0248H167.792V57.8184Z" fill="#263238"/>
<path d="M171.044 56.3047H168.6V66.0264H171.044V56.3047Z" fill="#263238"/>
<path d="M201.315 65.8602H186.639V56.8906H201.315V65.8602ZM187.457 65.0529H200.497V57.7091H187.457V65.0529Z" fill="#263238"/>
<path d="M196.427 58.5918H188.685V64.155H196.427V58.5918Z" fill="#263238"/>
<path d="M202.653 60.3164H200.806V62.4288H202.653V60.3164Z" fill="#263238"/>
<path d="M181.263 63.91C181.162 63.9121 181.062 63.8853 180.976 63.8326C177.99 62.0519 176.021 63.6998 175.933 63.7773C175.831 63.8779 175.694 63.9344 175.551 63.9344C175.408 63.9344 175.271 63.8779 175.169 63.7773C175.068 63.6739 175.011 63.5349 175.011 63.3902C175.011 63.2454 175.068 63.1064 175.169 63.0031C175.28 62.9146 177.802 60.7911 181.496 63.0031C181.595 63.0667 181.67 63.1601 181.713 63.2697C181.755 63.3794 181.761 63.4997 181.73 63.6131C181.699 63.7264 181.633 63.8271 181.541 63.9003C181.449 63.9736 181.337 64.0157 181.219 64.0206L181.263 63.91Z" fill="#263238"/>
<path d="M182.369 62.0653C182.268 62.0675 182.168 62.0406 182.082 61.9879C177.769 59.422 174.86 61.9105 174.838 61.9879C174.727 62.0635 174.592 62.0962 174.459 62.0799C174.326 62.0635 174.203 61.9993 174.113 61.8991C174.024 61.7989 173.974 61.6696 173.973 61.5353C173.972 61.4011 174.02 61.2711 174.108 61.1695C174.108 61.1695 177.647 58.139 182.646 61.1031C182.708 61.1395 182.763 61.1881 182.806 61.2459C182.849 61.3036 182.881 61.3695 182.898 61.4396C182.916 61.5096 182.919 61.5825 182.908 61.6539C182.897 61.7252 182.872 61.7937 182.834 61.8552C182.78 61.9264 182.71 61.9829 182.629 62.0197C182.547 62.0564 182.458 62.0721 182.369 62.0653Z" fill="#263238"/>
<path d="M183.365 59.93C183.267 59.9307 183.171 59.9039 183.088 59.8526C177.625 56.601 173.986 59.6646 173.831 59.8526C173.781 59.9041 173.72 59.945 173.654 59.973C173.588 60.0009 173.516 60.0153 173.444 60.0153C173.372 60.0153 173.301 60.0009 173.234 59.973C173.168 59.945 173.107 59.9041 173.057 59.8526C173.009 59.7995 172.973 59.7373 172.949 59.6697C172.926 59.6021 172.917 59.5305 172.922 59.4593C172.927 59.388 172.947 59.3186 172.98 59.255C173.012 59.1915 173.057 59.1352 173.112 59.0895C173.112 59.0895 177.47 55.3512 183.652 59.0231C183.776 59.0988 183.865 59.22 183.9 59.3607C183.935 59.5014 183.914 59.6502 183.84 59.7752C183.779 59.8373 183.704 59.8838 183.622 59.9108C183.539 59.9377 183.451 59.9443 183.365 59.93Z" fill="#263238"/>
<path d="M179.615 64.8292C179.618 65.1049 179.537 65.375 179.384 65.6047C179.232 65.8343 179.014 66.0131 178.759 66.118C178.504 66.223 178.223 66.2492 177.953 66.1934C177.683 66.1377 177.436 66.0024 177.244 65.8051C177.051 65.6077 176.922 65.3572 176.873 65.0859C176.824 64.8146 176.857 64.5347 176.968 64.2824C177.079 64.03 177.263 63.8166 177.496 63.6697C177.73 63.5227 178.002 63.4489 178.277 63.4577C178.635 63.4664 178.976 63.6147 179.226 63.871C179.476 64.1272 179.616 64.4711 179.615 64.8292Z" fill="#263238"/>
<path d="M124.67 208.333C149.002 208.709 169.274 217.933 185.256 236.381C185.77 236.939 186.166 237.596 186.419 238.312C186.672 239.028 186.778 239.788 186.729 240.545C186.681 241.303 186.479 242.043 186.136 242.721C185.794 243.398 185.318 243.999 184.736 244.488C184.174 244.97 183.521 245.334 182.815 245.559C182.109 245.784 181.365 245.865 180.628 245.797C179.89 245.729 179.174 245.513 178.521 245.163C177.869 244.813 177.293 244.335 176.828 243.758C171.126 237.019 164.193 231.427 156.401 227.278C144.418 220.912 130.798 218.294 117.308 219.763C103.819 221.232 91.0823 226.721 80.7508 235.518C77.8629 238.085 75.123 240.814 72.5443 243.691C72.063 244.274 71.4708 244.756 70.8022 245.109C70.1335 245.461 69.4015 245.678 68.6487 245.746C67.8958 245.813 67.1369 245.731 66.4159 245.504C65.695 245.277 65.0262 244.909 64.4484 244.421C63.8782 243.923 63.4144 243.314 63.0845 242.632C62.7546 241.95 62.5654 241.209 62.5282 240.452C62.4911 239.696 62.6067 238.939 62.8682 238.229C63.1297 237.518 63.5317 236.867 64.0503 236.314C76.8419 221.119 94.8877 211.298 114.594 208.808C116.187 208.598 117.79 208.421 119.394 208.355C120.998 208.289 122.911 208.333 124.67 208.333Z" fill="#263238"/>
<path d="M126.683 230.885C142.056 231.283 156.544 237.841 167.87 250.981C168.391 251.532 168.794 252.185 169.052 252.898C169.31 253.612 169.419 254.371 169.371 255.128C169.323 255.886 169.12 256.625 168.775 257.3C168.429 257.976 167.948 258.573 167.361 259.054C166.794 259.546 166.133 259.918 165.418 260.146C164.703 260.375 163.949 260.455 163.202 260.383C162.455 260.31 161.731 260.087 161.073 259.725C160.415 259.364 159.838 258.872 159.376 258.28C153.698 251.408 146.058 246.43 137.477 244.013C119.66 239.191 104.176 243.593 91.2356 256.809C90.7489 257.307 90.3066 257.838 89.8531 258.347C89.3738 258.916 88.786 259.385 88.1239 259.726C87.4618 260.066 86.7387 260.272 85.9965 260.33C85.2543 260.389 84.5078 260.299 83.8005 260.067C83.0931 259.835 82.439 259.464 81.8762 258.977C81.3134 258.489 80.853 257.895 80.5218 257.228C80.1907 256.561 79.9954 255.835 79.9473 255.092C79.8992 254.349 79.9992 253.604 80.2416 252.9C80.4839 252.196 80.8638 251.548 81.3591 250.992C86.3588 245.062 92.5254 240.224 99.4752 236.78C107.427 232.831 115.866 230.918 126.683 230.885Z" fill="#263238"/>
<path d="M151.966 269.329C151.97 270.468 151.629 271.581 150.987 272.521C150.345 273.461 149.433 274.184 148.371 274.594C147.295 275.021 146.111 275.098 144.988 274.817C143.865 274.535 142.859 273.908 142.111 273.023C139.776 270.268 136.84 268.084 133.529 266.642C124.305 262.727 114.13 265.116 107.261 272.858C106.569 273.741 105.62 274.388 104.544 274.711C103.469 275.034 102.321 275.016 101.256 274.66C100.373 274.384 99.5727 273.894 98.9254 273.234C98.2781 272.573 97.8042 271.763 97.5458 270.875C97.2874 269.987 97.2526 269.049 97.4445 268.145C97.6365 267.24 98.0491 266.397 98.6457 265.691C101.82 261.874 105.796 258.804 110.292 256.7C114.788 254.596 119.693 253.509 124.657 253.518C129.621 253.526 134.523 254.629 139.011 256.749C143.5 258.868 147.467 261.952 150.627 265.779C151.316 266.847 151.873 267.995 152.286 269.197L151.966 269.329Z" fill="#263238"/>
<path d="M124.659 298.849C122.424 298.856 120.237 298.198 118.376 296.96C116.516 295.722 115.065 293.959 114.207 291.895C113.35 289.831 113.125 287.559 113.561 285.367C113.997 283.175 115.075 281.162 116.657 279.583C118.238 278.005 120.254 276.931 122.446 276.5C124.639 276.068 126.911 276.297 128.973 277.159C131.036 278.02 132.796 279.474 134.03 281.338C135.264 283.201 135.918 285.389 135.907 287.624C135.908 289.1 135.618 290.562 135.053 291.926C134.488 293.29 133.659 294.529 132.614 295.572C131.569 296.615 130.328 297.442 128.963 298.004C127.598 298.566 126.135 298.854 124.659 298.849Z" fill="#263238"/>
<path d="M124.725 168.891C108.817 168.888 93.2655 173.604 80.0375 182.441C66.8095 191.277 56.4992 203.838 50.4104 218.535C44.3217 233.232 42.728 249.404 45.831 265.006C48.9339 280.609 56.5942 294.941 67.8429 306.19C79.0916 317.438 93.4235 325.098 109.026 328.201C124.628 331.304 140.801 329.711 155.497 323.622C170.194 317.533 182.755 307.223 191.592 293.995C200.429 280.767 205.144 265.215 205.142 249.307C205.115 227.988 196.635 207.549 181.559 192.473C166.484 177.398 146.045 168.917 124.725 168.891ZM55.3571 249.352C55.3394 235.876 59.2497 222.687 66.6096 211.399C73.9695 200.11 84.46 191.212 96.7976 185.792C109.135 180.372 122.785 178.665 136.078 180.88C149.37 183.096 161.728 189.137 171.641 198.266L73.6392 296.224C61.8757 283.45 55.3493 266.717 55.3571 249.352ZM124.725 318.72C109.121 318.729 93.975 313.45 81.7572 303.744L179.085 206.417C187.173 216.633 192.217 228.923 193.639 241.875C195.062 254.828 192.804 267.919 187.125 279.647C181.447 291.374 172.577 301.264 161.534 308.181C150.491 315.098 137.722 318.762 124.692 318.753L124.725 318.72Z" fill="#056348"/>
<path d="M463.071 470.619H452.586L450.341 445.668H465.316L463.071 470.619Z" fill="#263238" stroke="#263238" stroke-miterlimit="10"/>
<path d="M506.735 470.619H496.25L494.005 445.668H508.98L506.735 470.619Z" fill="#263238" stroke="#263238" stroke-miterlimit="10"/>
<path d="M401.942 470.619H391.457L389.223 445.668H404.187L401.942 470.619Z" fill="#263238" stroke="#263238" stroke-miterlimit="10"/>
<path d="M355.159 470.619H344.685L342.44 445.668H357.404L355.159 470.619Z" fill="#263238" stroke="#263238" stroke-miterlimit="10"/>
<path d="M405.194 284.912H514.156C514.156 284.912 514.588 322.792 508.98 349.613C503.373 376.433 496.505 392.647 496.505 392.647H392.962C392.962 392.647 408.324 333.321 405.194 284.912Z" fill="white" stroke="#263238" stroke-miterlimit="10"/>
<path d="M450.418 290.696C440.862 289.944 437.069 288.02 429.924 284.06C420.623 278.962 418.632 282.357 419.295 287.456C419.959 292.554 410.259 326.165 408.235 343.087C406.211 360.009 406.897 369.111 406.897 369.111C406.897 369.111 400.925 374.21 404.906 375.902C407.467 376.965 410.143 377.726 412.881 378.169H489.924C489.924 378.169 503.616 307.817 504.943 296.503C506.271 285.188 500.298 284.06 496.969 285.752C493.64 287.445 492.988 288.584 488.331 289.148C477.448 290.552 463.513 291.714 450.418 290.696Z" fill="#056348"/>
<path d="M425.611 291.835C427.604 289.599 429.007 286.899 429.692 283.983C428.763 283.485 427.911 283.076 427.126 282.744C426.615 285.465 425.368 287.993 423.52 290.055C422.141 291.731 420.432 293.105 418.499 294.092C418.3 295.098 418.079 296.193 417.835 297.41C420.888 296.298 423.577 294.37 425.611 291.835Z" fill="white"/>
<path d="M494.591 313.844C489.714 319.573 489.902 324.66 490.079 329.593C490.256 334.194 490.411 338.529 486.23 343.451C482.049 348.373 477.725 348.893 473.157 349.468C468.269 350.065 463.203 350.695 458.337 356.424C453.471 362.153 453.636 367.241 453.824 372.163C453.963 374.18 453.908 376.206 453.659 378.212H456.446C456.657 376.17 456.697 374.113 456.567 372.063C456.401 367.462 456.235 363.116 460.427 358.205C464.619 353.294 468.921 352.752 473.5 352.188C478.389 351.591 483.454 350.961 488.32 345.232C493.187 339.503 493.01 334.415 492.833 329.482C492.656 324.881 492.501 320.535 496.693 315.624C498.276 313.695 500.302 312.177 502.599 311.2C502.787 310.094 502.975 309.077 503.152 308.07C499.79 309.105 496.811 311.114 494.591 313.844Z" fill="white"/>
<path d="M416.32 376.974C421.22 376.365 426.274 375.735 431.152 370.006C436.029 364.277 435.841 359.189 435.664 354.268C435.487 349.667 435.332 345.32 439.513 340.41C443.694 335.499 448.018 334.957 452.586 334.393C457.474 333.785 462.54 333.165 467.406 327.436C472.272 321.707 472.107 316.609 471.919 311.687C471.753 307.086 471.587 302.739 475.778 297.829C479.97 292.918 484.284 292.376 488.851 291.812C493.419 291.248 497.987 290.706 502.499 286.127C501.626 285.477 500.558 285.141 499.469 285.176C496.969 287.218 493.922 288.476 490.709 288.793C489.936 288.968 489.153 289.101 488.365 289.191L485.047 289.578C480.579 290.246 476.526 292.567 473.688 296.081C468.8 301.822 468.988 306.909 469.176 311.831C469.342 316.432 469.507 320.778 465.316 325.7C461.124 330.622 456.822 331.141 452.243 331.705C447.354 332.314 442.289 332.933 437.423 338.662C432.556 344.391 432.733 349.49 432.91 354.411C433.087 359.012 433.242 363.359 429.061 368.27C424.881 373.18 420.556 373.722 415.988 374.286C412.777 374.494 409.633 375.305 406.72 376.675C408.167 377.181 409.645 377.595 411.144 377.914C412.844 377.473 414.574 377.159 416.32 376.974Z" fill="white"/>
<path d="M410.248 352.21C415.126 346.481 414.938 341.393 414.761 336.472C414.595 331.86 414.429 327.524 418.621 322.602C422.812 317.681 427.115 317.161 431.682 316.597C436.571 315.989 441.636 315.358 446.514 309.629C451.391 303.9 451.203 298.813 451.026 293.891C451.026 292.785 450.949 291.778 450.96 290.728H450.418L448.206 290.518C448.206 291.701 448.206 292.862 448.261 294.024C448.438 298.625 448.593 302.971 444.412 307.882C440.232 312.792 435.907 313.334 431.34 313.898C426.451 314.507 421.386 315.126 416.508 320.855C411.631 326.584 411.819 331.672 412.007 336.604C412.173 341.205 412.328 345.552 408.147 350.462C407.915 350.739 407.682 350.993 407.439 351.237C407.328 352.641 407.229 353.968 407.151 355.207C408.288 354.321 409.326 353.317 410.248 352.21Z" fill="white"/>
<path d="M450.418 290.696C440.862 289.944 437.069 288.02 429.924 284.06C420.623 278.962 418.632 282.357 419.295 287.456C419.959 292.554 410.259 326.165 408.235 343.087C406.211 360.009 406.897 369.111 406.897 369.111C406.897 369.111 400.925 374.21 404.906 375.902C407.467 376.965 410.143 377.726 412.881 378.169H489.924C489.924 378.169 503.616 307.817 504.943 296.503C506.271 285.188 500.298 284.06 496.969 285.752C493.64 287.445 492.988 288.584 488.331 289.148C477.448 290.552 463.513 291.714 450.418 290.696Z" stroke="#263238" stroke-miterlimit="10"/>
<path d="M405.194 284.912H399.034C397.916 284.912 396.831 285.288 395.954 285.98C395.077 286.673 394.459 287.641 394.2 288.728L386.547 320.802C385.131 326.752 380.287 343.895 374.956 346.892C371.683 348.728 367.992 349.692 364.239 349.69H341.146L350.967 450.081H392.995L404.055 290.232C404.091 289.864 404.091 289.494 404.055 289.126H405.305L405.194 284.912Z" fill="white" stroke="#263238" stroke-miterlimit="10"/>
<path d="M347.306 349.678H370.41C374.163 349.678 377.854 348.715 381.128 346.88C386.458 343.883 391.292 326.74 392.718 320.79L400.361 288.716C400.621 287.63 401.24 286.663 402.116 285.971C402.993 285.279 404.077 284.902 405.194 284.9C405.875 284.9 406.549 285.04 407.174 285.312C407.798 285.583 408.36 285.98 408.825 286.478C409.29 286.976 409.647 287.564 409.875 288.206C410.103 288.848 410.196 289.53 410.149 290.209L398.812 450.069H356.785L347.306 349.678Z" fill="white" stroke="#263238" stroke-miterlimit="10"/>
<path d="M445.972 450.123L448.372 378.211L352.029 377.359L354.44 450.123H445.972Z" fill="white" stroke="#263238" stroke-miterlimit="10"/>
<path d="M520.317 284.912H514.156C513.04 284.914 511.956 285.291 511.079 285.983C510.202 286.675 509.584 287.642 509.323 288.728L501.67 320.802C500.254 326.752 495.421 343.895 490.079 346.892C486.806 348.73 483.115 349.693 479.362 349.69H456.269L460.306 450.07H507.664L519.111 290.221C519.153 289.853 519.153 289.482 519.111 289.115H520.361L520.317 284.912Z" fill="white" stroke="#263238" stroke-miterlimit="10"/>
<path d="M462.429 349.678H485.533C489.286 349.678 492.976 348.715 496.25 346.88C501.581 343.883 506.425 326.74 507.841 320.79L515.495 288.716C515.753 287.631 516.369 286.664 517.244 285.972C518.119 285.28 519.201 284.902 520.317 284.9C520.998 284.899 521.673 285.038 522.298 285.308C522.924 285.579 523.487 285.976 523.952 286.474C524.417 286.973 524.774 287.562 525.001 288.204C525.228 288.847 525.32 289.529 525.272 290.209L514.035 447.603C513.985 448.265 513.687 448.884 513.202 449.337C512.716 449.79 512.078 450.044 511.413 450.047H466.2L462.429 349.678Z" fill="white" stroke="#263238" stroke-miterlimit="10"/>
<path d="M448.372 356.913L445.928 450.126H466.156L469.673 356.913C469.673 355.962 469.486 355.021 469.122 354.142C468.757 353.264 468.224 352.466 467.551 351.794C466.878 351.123 466.079 350.59 465.2 350.227C464.322 349.864 463.38 349.678 462.429 349.68H455.616C454.665 349.678 453.724 349.864 452.845 350.227C451.966 350.59 451.167 351.123 450.494 351.794C449.821 352.466 449.288 353.264 448.923 354.142C448.559 355.021 448.372 355.962 448.372 356.913Z" fill="white" stroke="#263238" stroke-miterlimit="10"/>
<path d="M330.838 356.913L334.311 450.126H354.539L352.128 356.913C352.128 354.995 351.366 353.155 350.01 351.798C348.653 350.442 346.814 349.68 344.895 349.68H338.082C337.131 349.678 336.19 349.864 335.311 350.227C334.432 350.59 333.633 351.123 332.96 351.794C332.288 352.466 331.754 353.264 331.39 354.142C331.025 355.021 330.838 355.962 330.838 356.913Z" fill="white" stroke="#263238" stroke-miterlimit="10"/>
<path d="M352.516 409.148H447.454" stroke="#263238" stroke-miterlimit="10"/>
<path d="M306.075 285.274C306.075 285.274 297.293 334.07 295.369 342.321C293.444 350.572 288.733 392.633 288.733 403.084C288.733 413.536 289.551 445.112 289.551 445.112C289.551 445.112 285.979 446.76 285.979 448.131C285.979 449.503 288.733 458.306 288.733 458.306L304.947 464.356C304.947 464.356 308.265 456.614 308.519 453.905C308.773 451.195 306.595 450.056 306.595 445.377C306.595 440.699 314.845 386.273 317.323 377.204C319.8 368.135 326.945 340.916 328.316 338.439C329.688 335.961 336.567 317.823 336.567 317.823L340.416 319.748C340.416 319.748 342.882 376.927 344.265 380.5C345.647 384.072 364.084 442.292 364.084 442.292C364.084 442.292 361.065 443.663 362.978 446.97C364.892 450.277 368.198 457.687 368.198 457.687C368.198 457.687 371.229 453.562 374.834 452.743C378.44 451.925 384.457 455.486 384.457 455.486C384.457 455.486 388.029 447.235 387.199 443.398C386.37 439.56 382.775 432.946 382.532 431.022C382.289 429.097 374.79 373.665 374.79 373.665C374.79 373.665 376.715 296.135 376.715 290.914C376.612 287.352 375.963 283.828 374.79 280.463C363.256 284.42 351.223 286.736 339.044 287.342C319.524 288.16 308.807 280.197 308.807 280.197L306.075 285.274Z" fill="#263238" stroke="#263238" stroke-miterlimit="10"/>
<path d="M288.777 458.338C288.777 458.338 279.697 466.578 278.049 467.684C276.401 468.79 264.854 473.214 265.131 475.426C265.407 477.637 268.449 478.998 268.449 478.998H305.843C305.843 478.998 306.108 477.892 306.661 472.672C306.925 469.287 306.36 465.889 305.013 462.773L288.777 458.338Z" fill="white" stroke="#263238" stroke-miterlimit="10"/>
<path d="M306.384 474.986L265.33 476.092C266.037 477.343 267.121 478.337 268.427 478.935H305.82C305.82 478.935 306.008 478.194 306.384 474.986Z" fill="white" stroke="#263238" stroke-miterlimit="10"/>
<path d="M368.221 457.688C368.221 457.688 367.944 464.556 367.944 468.139C367.944 471.723 367.402 475.881 367.668 476.655C367.933 477.43 368.497 478.867 368.497 478.867H390.219C390.219 478.867 391.037 476.655 389.942 472.541C388.847 468.427 386.912 466.226 386.37 462.587C385.95 460.152 385.305 457.76 384.445 455.443C384.445 455.443 373.717 446.971 368.221 457.688Z" fill="white" stroke="#263238" stroke-miterlimit="10"/>
<path d="M390.506 476.257C382.245 476.257 371.959 475.991 367.59 475.881C367.589 476.141 367.615 476.4 367.668 476.655C367.944 477.485 368.497 478.867 368.497 478.867H390.219C390.458 478.019 390.555 477.137 390.506 476.257Z" fill="white" stroke="#263238" stroke-miterlimit="10"/>
<path d="M298.278 181.765C298.278 181.765 274.919 203.697 275.936 205.743C276.954 207.789 283.347 224.39 283.347 224.39C283.347 224.39 285.183 235.45 284.165 242.429C283.543 246.842 283.336 251.304 283.546 255.756C285.692 258.462 288.316 260.752 291.288 262.513C295.8 264.98 299.284 269.282 302.16 262.314C305.035 255.347 303.796 242.838 303.796 242.838C303.796 242.838 307.678 258.012 308.331 260.689C308.984 263.365 306.119 285.286 306.119 285.286C306.119 285.286 320.209 297.186 344.176 294.488C368.143 291.789 375.741 283.428 375.741 283.428C375.741 283.428 373.275 256.574 373.275 253.5C373.252 251.374 373.115 249.251 372.866 247.14C372.866 247.14 381.271 255.756 385.375 255.347C389.478 254.937 396.645 238.126 394.798 235.439C392.951 232.751 386.602 221.89 382.709 214.104C380.362 209.411 378.409 204.532 376.869 199.516C376.869 199.516 370.101 176.556 368.021 174.919C365.942 173.282 342.915 173.536 338.812 172.519C333.394 171.452 327.917 170.713 322.41 170.307C321.039 170.285 302.79 174.587 298.278 181.765Z" fill="#056348" stroke="#263238" stroke-miterlimit="10"/>
<path d="M367.181 212.453C367.07 206.569 367.048 201.99 367.048 201.99" stroke="#263238" stroke-miterlimit="10"/>
<path d="M372.932 247.137C371.367 243.947 370.001 240.663 368.84 237.305C368.022 234.861 367.59 226.134 367.358 217.961" stroke="#263238" stroke-miterlimit="10"/>
<path d="M292.117 222.864C290.027 219.214 288.434 216.36 288.235 215.785" stroke="#263238" stroke-miterlimit="10"/>
<path d="M303.819 242.837C303.819 242.837 298.576 233.989 294.174 226.424" stroke="#263238" stroke-miterlimit="10"/>
<path d="M330.462 173.146C331.306 180.363 331.377 187.648 330.672 194.879" stroke="#263238" stroke-miterlimit="10"/>
<path d="M344.254 274.314C346.72 274.812 349.363 275.266 352.184 275.631" stroke="#263238" stroke-miterlimit="10"/>
<path d="M314.469 261.086C314.469 261.086 321.105 268.363 338.801 273.031" stroke="#263238" stroke-miterlimit="10"/>
<path d="M332.508 276.658C340.107 280.069 348.369 281.75 356.696 281.58" stroke="#263238" stroke-miterlimit="10"/>
<path d="M283.524 148.551C283.524 148.551 285.979 160.031 286.189 162.497C286.399 164.964 287.007 168.237 290.082 173.148C293.157 178.058 301.142 188.93 302.79 189.55C304.438 190.169 310.786 188.521 310.786 188.521C310.786 188.521 317.544 201.848 319.391 201.439C321.238 201.03 325.949 185.856 326.569 179.706C326.959 176.647 327.026 173.556 326.768 170.482L323.903 160.241C323.903 160.241 321.448 145.863 321.448 144.868C321.448 143.872 322.875 136.462 314.89 133.387C306.904 130.313 297.05 130.069 290.491 137.69C283.933 145.31 283.524 148.551 283.524 148.551Z" fill="white" stroke="#263238" stroke-miterlimit="10"/>
<path d="M305.466 135.644C302.592 140.008 298.822 143.71 294.407 146.505C286.83 151.427 290.513 146.096 290.513 146.096C290.513 146.096 285.183 149.414 280.88 151.626C276.578 153.838 278.215 154.501 276.578 153.838C274.941 153.174 268.836 135.722 282.539 127.294C296.242 118.866 306.241 121.089 306.241 121.089C306.241 121.089 300.29 118.424 305.621 118.424C310.952 118.424 313.208 121.333 313.208 121.333C313.208 121.333 316.073 120.514 317.301 122.151C317.838 122.736 318.51 123.18 319.258 123.445C325.894 126.254 328.206 132.536 329.455 139.095C330.274 143.397 326.79 153.65 326.79 153.65L321.039 156.724C319.645 155.455 318.517 153.921 317.721 152.212C317.197 150.555 316.921 148.829 316.902 147.091C316.902 147.091 313.419 151.593 312.799 148.319C312.18 145.045 310.587 136.64 310.587 136.64C310.587 136.64 311.207 139.958 309.16 139.958C307.114 139.958 305.466 135.644 305.466 135.644Z" fill="#263238" stroke="#263238" stroke-miterlimit="10"/>
<path d="M320.619 158.184C320.619 158.184 320.42 151.216 324.523 148.96C328.626 146.704 331.491 149.17 330.252 155.729C329.013 162.287 321.647 164.742 321.647 164.742" fill="white"/>
<path d="M320.619 158.184C320.619 158.184 320.42 151.216 324.523 148.96C328.626 146.704 331.491 149.17 330.252 155.729C329.013 162.287 321.647 164.742 321.647 164.742" stroke="#263238" stroke-miterlimit="10"/>
<path d="M310.786 188.523L321.647 177.662L314.469 194.263L310.786 188.523Z" fill="#263238" stroke="#263238" stroke-miterlimit="10"/>
<path d="M305.765 177.538C305.995 177.94 306.065 178.414 305.961 178.866C305.856 179.317 305.585 179.712 305.201 179.972C304.46 180.27 303.52 179.662 303.1 178.611C302.679 177.56 302.934 176.466 303.664 176.167C304.394 175.868 305.334 176.488 305.765 177.538Z" fill="#263238"/>
<path d="M308.596 158.56C308.995 159.865 308.707 161.104 307.966 161.336C307.225 161.568 306.274 160.694 305.876 159.4C305.478 158.106 305.765 156.868 306.506 156.635C307.247 156.403 308.198 157.266 308.596 158.56Z" fill="#263238"/>
<path d="M295.136 160.837C295.535 162.142 295.247 163.381 294.495 163.613C293.743 163.846 292.814 162.983 292.416 161.678C292.018 160.373 292.294 159.145 293.046 158.913C293.798 158.681 294.727 159.543 295.136 160.837Z" fill="#263238"/>
<path d="M295.623 155.729C296.532 156.472 297.262 157.411 297.758 158.476C298.254 159.541 298.503 160.703 298.488 161.878C298.488 165.981 297.868 172.13 297.868 172.13L305.256 171.102" stroke="#263238" stroke-miterlimit="10"/>
<path d="M300.534 153.062C300.534 153.062 304.228 146.504 309.968 147.731" stroke="#263238" stroke-miterlimit="10"/>
<path d="M293.975 154.292C293.975 154.292 289.474 152.865 286.399 154.701" stroke="#263238" stroke-miterlimit="10"/>
<path d="M419.384 206.97C419.384 206.97 423.896 205.333 425.533 204.758C427.17 204.183 428.851 205.167 431.682 203.741C434.514 202.314 437.832 199.427 438.042 201.529C438.252 203.63 437.212 204.393 435.576 205.422C433.939 206.45 431.273 208.496 431.273 208.496L430.455 210.543L418.156 209.525C418.156 209.525 418.388 207.601 419.384 206.97Z" fill="white" stroke="#263238" stroke-miterlimit="10"/>
<path d="M444.103 212.267C444.103 212.267 449.754 207.788 450.573 205.742C451.391 203.696 449.954 203.53 448.527 204.304C447.1 205.078 442.61 208.817 442.61 208.817L444.103 212.267Z" fill="white" stroke="#263238" stroke-miterlimit="10"/>
<path d="M439.48 213.24C439.48 213.24 443.682 213.683 444.103 212.267C444.523 210.851 447.841 201.937 447.299 200.82C446.757 199.703 445.706 199.803 444.545 201.65C443.303 204.182 442.231 206.794 441.338 209.469C441.338 209.469 438.529 210.099 437.821 212.024C437.113 213.948 439.48 213.24 439.48 213.24Z" fill="white" stroke="#263238" stroke-miterlimit="10"/>
<path d="M434.171 214.345C434.171 214.345 438.075 215.993 438.894 214.754C439.712 213.515 445.452 205.906 445.242 204.711C445.032 203.517 444.014 203.285 442.377 204.711C440.453 206.773 438.672 208.965 437.047 211.27C437.047 211.27 434.171 211.071 432.943 212.708C431.716 214.345 434.171 214.345 434.171 214.345Z" fill="white" stroke="#263238" stroke-miterlimit="10"/>
<path d="M376.991 247.971C378.61 241.413 382.731 235.748 388.471 232.188C398.304 225.829 411.642 214.348 411.642 214.348C411.642 214.348 416.154 208 419.384 206.971C422.613 205.943 433.319 209.017 433.319 209.017C433.319 209.017 441.935 200.413 442.167 202.26C442.4 204.107 438.075 210.665 436.018 213.121C433.961 215.576 427.612 216.195 426.186 216.195C423.648 216.272 421.115 216.478 418.599 216.815C417.78 217.014 404.221 235.462 398.104 244.465C391.988 253.467 389.257 255.115 385.397 255.325C381.537 255.536 377.4 252.45 376.372 251.023C375.343 249.596 376.991 247.971 376.991 247.971Z" fill="white" stroke="#263238" stroke-miterlimit="10"/>
<path d="M248.806 214.038L261.724 242.064C261.923 242.463 262.247 242.787 262.646 242.986C263.045 243.186 263.498 243.25 263.936 243.17L274.654 241.19C274.951 241.132 275.232 241.009 275.476 240.83C275.721 240.651 275.922 240.419 276.066 240.153C276.21 239.886 276.293 239.591 276.309 239.288C276.324 238.985 276.273 238.683 276.158 238.403L264.545 211.052C264.377 210.648 264.082 210.309 263.705 210.088C263.328 209.866 262.889 209.774 262.454 209.824L250.41 211.162C250.091 211.2 249.786 211.314 249.519 211.493C249.253 211.672 249.032 211.911 248.876 212.191C248.719 212.472 248.632 212.785 248.619 213.106C248.607 213.427 248.671 213.746 248.806 214.038Z" fill="#263238" stroke="#263238" stroke-miterlimit="10"/>
<path d="M257.289 238.027C257.289 238.027 252.655 230.927 252.655 229.334C252.655 227.741 255.354 223.97 256.935 220.564C258.517 217.157 258.76 214.879 260.121 215.343C261.481 215.808 261.227 217.157 260.795 219.424C259.964 222.349 258.982 225.228 257.853 228.051L258.307 230.783C259.403 228.573 260.774 226.51 262.388 224.645C264.434 222.61 266.701 219.203 268.294 219.878C269.887 220.552 270.561 220.984 269.201 222.61C267.493 224.655 265.961 226.842 264.622 229.146C263.421 231.112 262.389 233.177 261.536 235.317C263.056 233.862 264.67 232.51 266.37 231.27C268.582 229.677 271.7 227.376 273.006 228.283C274.311 229.19 274.598 230.097 273.238 231.236C271.877 232.376 270.639 233.15 268.814 234.742C266.91 236.642 265.123 238.655 263.461 240.77C265.082 239.518 266.888 238.525 268.814 237.828C272.674 236.247 276.202 236.423 276.346 237.64C276.489 238.857 272.287 239.963 272.287 239.963C269.278 240.648 269.135 241.677 269.135 241.677C269.135 241.677 271.634 246.676 271.181 248.313C271.181 248.313 281.267 246.731 285.127 245.603C288.987 244.475 295.015 246.709 296.84 248.534C300.7 252.394 302.513 258.3 300.478 263.299C298.443 268.298 298.432 266.706 282.307 262.193C266.182 257.681 266.491 256.066 262.554 249.474C261.127 246.908 257.289 238.027 257.289 238.027Z" fill="white" stroke="#263238" stroke-miterlimit="10"/>
<path d="M271.247 248.268L270.904 252.426" stroke="#263238" stroke-miterlimit="10"/>
</svg>
