<svg width="25" height="25" viewBox="0 0 25 25" fill="none" xmlns="http://www.w3.org/2000/svg">
<path d="M3.20558 11.6364L8.20558 5.63637C8.29961 5.52349 8.41735 5.43271 8.55043 5.37048C8.68351 5.30826 8.82867 5.27613 8.97558 5.27637H19.9756C20.7712 5.27637 21.5343 5.59244 22.0969 6.15505C22.6595 6.71766 22.9756 7.48072 22.9756 8.27637V16.2764C22.9756 17.072 22.6595 17.8351 22.0969 18.3977C21.5343 18.9603 20.7712 19.2764 19.9756 19.2764H8.97558C8.82867 19.2766 8.68351 19.2445 8.55043 19.1823C8.41735 19.12 8.29961 19.0293 8.20558 18.9164L3.20558 12.9164C3.05592 12.7367 2.97396 12.5102 2.97396 12.2764C2.97396 12.0425 3.05592 11.8161 3.20558 11.6364V11.6364ZM9.44558 17.2764H19.9756C20.2408 17.2764 20.4952 17.171 20.6827 16.9835C20.8702 16.7959 20.9756 16.5416 20.9756 16.2764V8.27637C20.9756 8.01115 20.8702 7.7568 20.6827 7.56926C20.4952 7.38173 20.2408 7.27637 19.9756 7.27637H9.44558L5.27558 12.2764L9.44558 17.2764ZM12.2656 9.56637C12.3585 9.47264 12.4691 9.39825 12.591 9.34748C12.7129 9.29671 12.8436 9.27057 12.9756 9.27057C13.1076 9.27057 13.2383 9.29671 13.3602 9.34748C13.482 9.39825 13.5926 9.47264 13.6856 9.56637L14.9756 10.8664L16.2656 9.56637C16.4539 9.37806 16.7093 9.27228 16.9756 9.27228C17.2419 9.27228 17.4973 9.37806 17.6856 9.56637C17.8739 9.75467 17.9797 10.0101 17.9797 10.2764C17.9797 10.4082 17.9537 10.5388 17.9032 10.6606C17.8528 10.7824 17.7788 10.8931 17.6856 10.9864L16.3856 12.2764L17.6856 13.5664C17.7793 13.6593 17.8537 13.7699 17.9045 13.8918C17.9552 14.0137 17.9814 14.1444 17.9814 14.2764C17.9814 14.4084 17.9552 14.5391 17.9045 14.6609C17.8537 14.7828 17.7793 14.8934 17.6856 14.9864C17.5926 15.0801 17.482 15.1545 17.3602 15.2053C17.2383 15.256 17.1076 15.2822 16.9756 15.2822C16.8436 15.2822 16.7129 15.256 16.591 15.2053C16.4691 15.1545 16.3585 15.0801 16.2656 14.9864L14.9756 13.6864L13.6856 14.9864C13.5926 15.0801 13.482 15.1545 13.3602 15.2053C13.2383 15.256 13.1076 15.2822 12.9756 15.2822C12.8436 15.2822 12.7129 15.256 12.591 15.2053C12.4691 15.1545 12.3585 15.0801 12.2656 14.9864C12.1719 14.8934 12.0975 14.7828 12.0467 14.6609C11.9959 14.5391 11.9698 14.4084 11.9698 14.2764C11.9698 14.1444 11.9959 14.0137 12.0467 13.8918C12.0975 13.7699 12.1719 13.6593 12.2656 13.5664L13.5656 12.2764L12.2656 10.9864C12.1719 10.8934 12.0975 10.7828 12.0467 10.6609C11.9959 10.5391 11.9698 10.4084 11.9698 10.2764C11.9698 10.1444 11.9959 10.0137 12.0467 9.89179C12.0975 9.76993 12.1719 9.65933 12.2656 9.56637V9.56637Z" fill="#14142B"/>
</svg>
