<svg width="24" height="24" viewBox="0 0 24 24" fill="none" xmlns="http://www.w3.org/2000/svg">
<path d="M14.254 13.9173C14.9415 13.9173 15.5465 13.5415 15.8582 12.9732L19.1398 7.02398C19.479 6.41898 19.039 5.66732 18.3423 5.66732H4.77567L3.914 3.83398H0.916504V5.66732H2.74984L6.04984 12.6248L4.81234 14.8615C4.14317 16.0898 5.02317 17.584 6.4165 17.584H17.4165V15.7507H6.4165L7.42484 13.9173H14.254ZM5.6465 7.50065H16.784L14.254 12.084H7.819L5.6465 7.50065ZM6.4165 18.5007C5.40817 18.5007 4.59234 19.3257 4.59234 20.334C4.59234 21.3423 5.40817 22.1673 6.4165 22.1673C7.42484 22.1673 8.24984 21.3423 8.24984 20.334C8.24984 19.3257 7.42484 18.5007 6.4165 18.5007ZM15.5832 18.5007C14.5748 18.5007 13.759 19.3257 13.759 20.334C13.759 21.3423 14.5748 22.1673 15.5832 22.1673C16.5915 22.1673 17.4165 21.3423 17.4165 20.334C17.4165 19.3257 16.5915 18.5007 15.5832 18.5007Z" fill="#056348"/>
</svg>
