<svg width="25" height="25" viewBox="0 0 25 25" fill="none" xmlns="http://www.w3.org/2000/svg">
<path d="M13.4313 17.751C13.2564 17.9423 13.0092 18.0512 12.75 18.0512C12.4908 18.0512 12.2436 17.9423 12.0687 17.751L7.14567 12.3664C6.80167 11.9902 6.82781 11.4063 7.20406 11.0623C7.58031 10.7183 8.16418 10.7444 8.50818 11.1207L11.8269 14.7506V1.12816C11.8269 0.618354 12.2402 0.205078 12.75 0.205078C13.2598 0.205078 13.6731 0.618354 13.6731 1.12816V14.7506L16.9918 11.1207C17.3358 10.7444 17.9197 10.7183 18.2959 11.0623C18.6722 11.4063 18.6983 11.9902 18.3543 12.3664L13.4313 17.751Z" fill="#056348"/>
<path d="M2.59616 15.8974C2.59616 15.3876 2.18288 14.9743 1.67308 14.9743C1.16328 14.9743 0.750001 15.3876 0.750001 15.8974V15.9649C0.749976 17.6481 0.749956 19.0048 0.893415 20.0718C1.04236 21.1797 1.361 22.1124 2.10182 22.8533C2.84264 23.5941 3.77541 23.9127 4.88323 24.0617C5.95027 24.2051 7.30697 24.2051 8.99016 24.2051H16.5098C18.193 24.2051 19.5497 24.2051 20.6168 24.0617C21.7246 23.9127 22.6574 23.5941 23.3982 22.8533C24.139 22.1124 24.4576 21.1797 24.6066 20.0718C24.75 19.0048 24.75 17.6481 24.75 15.9649V15.8974C24.75 15.3876 24.3367 14.9743 23.8269 14.9743C23.3171 14.9743 22.9038 15.3876 22.9038 15.8974C22.9038 17.6641 22.9019 18.8962 22.7769 19.8259C22.6555 20.729 22.4334 21.2072 22.0928 21.5478C21.7521 21.8885 21.2739 22.1106 20.3708 22.232C19.4411 22.357 18.209 22.3589 16.4423 22.3589H9.05769C7.29103 22.3589 6.05889 22.357 5.12923 22.232C4.22612 22.1106 3.74788 21.8885 3.40724 21.5478C3.06661 21.2072 2.84453 20.729 2.72311 19.8259C2.59812 18.8962 2.59616 17.6641 2.59616 15.8974Z" fill="#056348"/>
</svg>
