<svg width="24" height="24" viewBox="0 0 24 24" fill="none" xmlns="http://www.w3.org/2000/svg">
<g clip-path="url(#clip0_2055_683)">
<path d="M15.6487 0.0531258L4 14.45H10.8L9.12603 23.6528C9.12285 23.6709 9.12366 23.6894 9.12841 23.7071C9.13317 23.7248 9.14175 23.7413 9.15355 23.7553C9.16536 23.7694 9.18009 23.7806 9.19672 23.7884C9.21336 23.7961 9.23148 23.8 9.24981 23.8V23.8C9.26932 23.8 9.28856 23.7954 9.30599 23.7866C9.32342 23.7779 9.33856 23.7652 9.35022 23.7495L21 9.35H14.2L15.8819 0.146095C15.8842 0.127758 15.8825 0.10915 15.877 0.0915076C15.8716 0.0738653 15.8624 0.0575929 15.8501 0.043773C15.8379 0.0299531 15.8228 0.018902 15.8059 0.0113548C15.7891 0.00380753 15.7708 -6.28633e-05 15.7523 7.72145e-07V7.72145e-07C15.7321 8.10684e-05 15.7122 0.00493412 15.6942 0.0141652C15.6762 0.0233963 15.6606 0.0367448 15.6487 0.0531258V0.0531258Z" fill="#056348" stroke="#056348" stroke-width="1.7" stroke-linecap="round" stroke-linejoin="round"/>
</g>
<defs>
<clipPath id="clip0_2055_683">
<rect width="24" height="24" fill="white"/>
</clipPath>
</defs>
</svg>
