<svg width="21" height="21" viewBox="0 0 21 21" fill="none" xmlns="http://www.w3.org/2000/svg">
<path d="M10.7907 3.37457C10.4406 3.37457 10.1565 3.09043 10.1565 2.74034V1.08541C10.1565 0.735309 10.4406 0.451172 10.7907 0.451172C11.1408 0.451172 11.425 0.735309 11.425 1.08541V2.74034C11.425 3.09043 11.1408 3.37457 10.7907 3.37457Z" fill="#056348"/>
<path d="M16.3476 5.67678C16.1852 5.67678 16.0228 5.61505 15.8994 5.49074C15.6516 5.24297 15.6516 4.84128 15.8994 4.59351L17.0697 3.42314C17.3175 3.17536 17.7192 3.17536 17.967 3.42314C18.2147 3.67091 18.2147 4.07259 17.967 4.32037L16.7966 5.49074C16.6723 5.6142 16.5099 5.67678 16.3476 5.67678Z" fill="#056348"/>
<path d="M20.3042 11.2333H18.6493C18.2992 11.2333 18.0151 10.9492 18.0151 10.5991C18.0151 10.249 18.2992 9.96484 18.6493 9.96484H20.3042C20.6543 9.96484 20.9385 10.249 20.9385 10.5991C20.9385 10.9492 20.6543 11.2333 20.3042 11.2333Z" fill="#056348"/>
<path d="M17.5179 17.96C17.3556 17.96 17.1932 17.8983 17.0697 17.7739L15.8994 16.6036C15.6516 16.3558 15.6516 15.9541 15.8994 15.7063C16.1471 15.4586 16.5488 15.4586 16.7966 15.7063L17.967 16.8767C18.2147 17.1245 18.2147 17.5262 17.967 17.7739C17.8427 17.8983 17.6803 17.96 17.5179 17.96Z" fill="#056348"/>
<path d="M4.06362 17.96C3.90126 17.96 3.73889 17.8983 3.61543 17.7739C3.36765 17.5262 3.36765 17.1245 3.61543 16.8767L4.7858 15.7063C5.03358 15.4586 5.43526 15.4586 5.68303 15.7063C5.93081 15.9541 5.93081 16.3558 5.68303 16.6036L4.51266 17.7739C4.38835 17.8983 4.22598 17.96 4.06362 17.96Z" fill="#056348"/>
<path d="M2.93217 11.2333H1.27724C0.927143 11.2333 0.643005 10.9492 0.643005 10.5991C0.643005 10.249 0.927143 9.96484 1.27724 9.96484H2.93217C3.28227 9.96484 3.5664 10.249 3.5664 10.5991C3.5664 10.9492 3.28227 11.2333 2.93217 11.2333Z" fill="#056348"/>
<path d="M5.23399 5.67678C5.07163 5.67678 4.90927 5.61505 4.7858 5.49074L3.61543 4.32037C3.36765 4.07259 3.36765 3.67091 3.61543 3.42314C3.8632 3.17536 4.26488 3.17536 4.51266 3.42314L5.68303 4.59351C5.93081 4.84128 5.93081 5.24297 5.68303 5.49074C5.55788 5.6142 5.39636 5.67678 5.23399 5.67678Z" fill="#056348"/>
<path d="M13.3277 18.21V19.267C13.3277 20.0788 12.6596 20.7469 11.8478 20.7469H9.73367C9.02333 20.7469 8.25379 20.2057 8.25379 19.0218V18.21H13.3277Z" fill="#056348"/>
<path fill-rule="evenodd" clip-rule="evenodd" d="M9.52232 4.81481C11.3066 4.43427 13.1332 4.874 14.5201 5.99871C15.9154 7.13188 16.7103 8.80626 16.7103 10.599C16.7103 12.4256 15.8816 14.1169 14.4524 15.2501C13.8689 15.7067 13.4884 16.2987 13.37 16.9414V16.9498C13.3531 16.9414 13.3446 16.9414 13.3277 16.9414H8.25385C8.23694 16.9414 8.21157 16.9414 8.19466 16.9498V16.9414C8.07627 16.2733 7.72955 15.6983 7.23062 15.3262C5.38711 13.9309 4.52455 11.6476 4.99812 9.34747C5.46322 7.10651 7.28136 5.27991 9.52232 4.81481ZM13.3278 10.3876C13.3278 10.7343 13.6153 11.0218 13.962 11.0218C14.3088 11.0218 14.5963 10.7343 14.5963 10.3876C14.5963 8.40874 12.9811 6.79356 11.0023 6.79356C10.6556 6.79356 10.368 7.08108 10.368 7.42779C10.368 7.77451 10.6556 8.06203 11.0023 8.06203C12.2877 8.06203 13.3278 9.10217 13.3278 10.3876Z" fill="#056348"/>
<path d="M8.19458 16.9411H8.25378C8.23687 16.9411 8.2115 16.9411 8.19458 16.9495V16.9411Z" fill="#056348"/>
<path d="M13.37 16.9411V16.9495C13.3531 16.9411 13.3446 16.9411 13.3277 16.9411H13.37Z" fill="#056348"/>
</svg>
