<svg width="32" height="32" viewBox="0 0 32 32" fill="none" xmlns="http://www.w3.org/2000/svg">
<path d="M1.66713 30.9524L0.704884 30.5404C0.622072 30.7326 0.598867 30.9453 0.638275 31.151C0.677683 31.3566 0.777887 31.5456 0.925922 31.6937C1.07396 31.8417 1.26301 31.9419 1.46863 31.9813C1.67424 32.0207 1.88695 31.9975 2.07923 31.9147L1.66713 30.9524ZM30.953 18.4014L31.3651 19.3636C31.5424 19.2878 31.6954 19.1645 31.807 19.0072C31.9187 18.8498 31.9846 18.6647 31.9976 18.4723C32.0106 18.2798 31.9701 18.0875 31.8806 17.9166C31.7912 17.7457 31.6562 17.6029 31.4906 17.504L30.953 18.4014ZM14.2182 1.66663L15.1156 1.12902C15.0167 0.963436 14.8738 0.828434 14.703 0.738947C14.5321 0.64946 14.3398 0.608971 14.1473 0.62196C13.9549 0.634949 13.7697 0.700911 13.6124 0.812548C13.4551 0.924187 13.3317 1.07715 13.256 1.25454L14.2182 1.66663ZM2.07923 31.9147L31.3651 19.3636L30.5409 17.4391L1.25504 29.9902L2.07923 31.9147ZM31.4906 17.5019L21.0313 11.2264L19.9561 13.0212L30.4154 19.2967L31.4906 17.5019ZM21.3932 11.5882L15.1177 1.12902L13.3229 2.20423L19.5984 12.6635L21.3932 11.5882ZM13.258 1.25454L0.706976 30.5404L2.63147 31.3645L15.1825 2.07872L13.258 1.25454ZM2.40765 31.6909L21.2342 12.8643L19.7532 11.3853L0.92662 30.2119L2.40765 31.693V31.6909Z" fill="#EF8B6E"/>
</svg>
