<svg width="30" height="30" viewBox="0 0 30 30" fill="none" xmlns="http://www.w3.org/2000/svg">
<path d="M28.9985 1.00147L29.9184 1.39544C29.9976 1.21162 30.0198 1.00827 29.9821 0.811698C29.9445 0.615131 29.8487 0.434392 29.7071 0.292868C29.5656 0.151344 29.3849 0.0555477 29.1883 0.0178742C28.9917 -0.0197994 28.7884 0.00238372 28.6046 0.0815531L28.9985 1.00147ZM1.00098 13.0004L0.607018 12.0805C0.437439 12.153 0.291201 12.2709 0.184474 12.4213C0.0777466 12.5717 0.014688 12.7487 0.00226996 12.9327C-0.0101481 13.1166 0.0285583 13.3005 0.114109 13.4639C0.199661 13.6272 0.328724 13.7638 0.487029 13.8583L1.00098 13.0004ZM16.9996 28.999L16.1417 29.513C16.2362 29.6713 16.3728 29.8003 16.5361 29.8859C16.6995 29.9714 16.8834 30.0101 17.0673 29.9977C17.2513 29.9853 17.4283 29.9222 17.5787 29.8155C17.7291 29.7088 17.847 29.5626 17.9195 29.393L16.9996 28.999ZM28.6046 0.0815531L0.607018 12.0805L1.39495 13.9203L29.3925 1.92139L28.6046 0.0815531ZM0.487029 13.8603L10.4862 19.8598L11.5141 18.144L1.51494 12.1445L0.487029 13.8603ZM10.1402 19.5138L16.1397 29.513L17.8555 28.4851L11.856 18.4859L10.1402 19.5138ZM17.9175 29.393L29.9164 1.39544L28.0766 0.607507L16.0777 28.605L17.9175 29.393ZM28.2906 0.295534L10.2922 18.294L11.708 19.7078L29.7065 1.70941L28.2906 0.293534V0.295534Z" fill="#A699F8"/>
</svg>
